<svg xmlns="http://www.w3.org/2000/svg" xmlns:xlink="http://www.w3.org/1999/xlink" id="Layer_1" width="400" height="400" x="0" y="0" enable-background="new 0 0 400 400" version="1.1" viewBox="0 0 400 400" xml:space="preserve"><path fill="#8F9A87" d="M336.699,278C275.4,243.9,238.4,215.4,200,162.3v-0.1l0,0l0,0v0.1C169.3,210.4,124.6,243.8,63.3,278	c-0.8,15.1-2.6,25.5,2.2,39.1C128,292.9,157.8,266.6,200,222c42.1,44.6,72,70.9,134.5,95.1C339.199,303.5,337.4,293.1,336.699,278z"/><path fill="#8F9A87" d="M336.699,224C275.4,189.8,234,135.8,200,74.3v-0.1l0,0l0,0v0.1C166,135.8,124.6,189.8,63.3,224	c-0.8,15.1-2.6,25.5,2.2,39.1C128,238.9,157.8,192.6,200,148c42.1,44.6,72,90.9,134.5,115.1C339.199,249.5,337.4,239.1,336.699,224z"/></svg>