<svg id="Layer_1" data-name="Layer 1" xmlns="http://www.w3.org/2000/svg" viewBox="0 0 1024 1024"><defs><style>.cls-1{fill:#ec008c;opacity:0.93;isolation:isolate;}.cls-2,.cls-3{fill:#fff;}.cls-2{fill-opacity:0.94;}.cls-3{font-size:189.05px;stroke:#fff;stroke-miterlimit:10;stroke-width:7px;font-family:MyriadPro-Regular, Myriad Pro;}.cls-4{letter-spacing:0em;}.cls-5{letter-spacing:-0.01em;}</style></defs><rect class="cls-1" width="1024" height="1024" rx="159.78"/><path class="cls-2" d="M307.14,506.82H158.24V472.93c26.7-26.7,104-86.73,96.08-121.28-10.48-33.07-56.37-10.59-63.13,4.5l-32.79-25c33.81-52.15,138.4-46.14,141.37,21,.46,53.09-52.32,85.64-83.09,114.92v2h90.46Z" transform="translate(-0.37 -0.01)"/><path class="cls-2" d="M495.55,404.15c.21,61.21-17.46,107.47-78.6,107.86-65.14-.12-80.42-46.91-80.2-107.48-.22-60.69,16.32-107.79,80.2-107.91C478.61,296.74,495.33,343.91,495.55,404.15Zm-115.15.38c.4,24,2.31,70.37,35.78,70.7,33.13.38,35.89-49.11,36-71.08-.43-23.86-1.66-70-35.59-70.21C382.1,333.31,380.63,381.6,380.4,404.53Z" transform="translate(-0.37 -0.01)"/><path class="cls-2" d="M789.16,296.6c29.1.15,69.8,12.71,69.83,50.52,0,29.9-12.45,36.62-36.31,49.66,26.26,15.86,42.78,27.69,43.08,58.85-.3,40.81-39.77,55.54-76.6,55.81-38.79-.27-77-14.11-77.64-56.4.62-30.5,18.5-47.79,37.9-57.55-22.15-13.59-32.54-20.6-32-50.65-.55-37.23,40.33-50.09,71.73-50.24Zm-36,154.78c-.14,19.4,16,26.43,35.54,26.27,18.79.16,33-7.67,33.24-24.47.17-28.21-33.22-40.54-33.22-40.54S753.06,425,753.2,451.38ZM788.84,332c-16.37-.13-31.23,3.55-31.31,19.38.08,18.43,31,31.08,31,31.08S817,370,817.39,350.05c-.66-14.51-13-18.21-28.55-18.07Z" transform="translate(-0.37 -0.01)"/><path class="cls-2" d="M688.5,472.25H662v34.43H622.69V472.27H520.09v-38L620.21,301.64H662V437.41H688.5ZM622.69,357.14l-61.57,80.27h61.57Z" transform="translate(-0.37 -0.01)"/><text class="cls-3" transform="translate(110.67 696.69)"><tspan class="cls-4">R</tspan><tspan x="102.46" y="0">edesi</tspan><tspan class="cls-5" x="517.6" y="0">g</tspan><tspan x="622.14" y="0">ns</tspan></text></svg>